<svg width="20" height="20" viewBox="0 0 20 20" fill="none" xmlns="http://www.w3.org/2000/svg">
<g clip-path="url(#clip0_492_742)">
<path fill-rule="evenodd" clip-rule="evenodd" d="M1.01929 12.3851C1.01929 12.9618 1.35456 13.4797 1.93166 13.4797C3.02698 13.4797 3.75562 13.1629 4.68449 12.7337C5.70718 12.2613 6.54103 11.7804 7.51112 11.2044C7.66305 11.1142 7.82912 11.0379 7.96652 10.9254C8.0106 10.8903 8.04957 10.8493 8.08233 10.8036C8.09333 10.7881 8.1263 10.7492 8.12473 10.7297C8.12316 10.7102 8.11256 10.7204 8.10196 10.7219C8.06718 10.7268 8.03271 10.7337 7.99871 10.7425C7.89939 10.7667 7.80242 10.7974 7.70349 10.8282C7.57276 10.8671 7.44242 10.9118 7.3109 10.9535C7.15779 11.0025 7.0039 11.0503 6.84961 11.0959C6.68276 11.1445 6.51512 11.1908 6.34592 11.2317C6.17671 11.2725 6.00162 11.3095 5.82731 11.3387C5.65964 11.3672 5.49039 11.3857 5.32048 11.3939C5.16433 11.402 5.00776 11.3952 4.85291 11.3737C4.71699 11.3553 4.58465 11.3168 4.46032 11.2593C3.15968 10.6367 5.38643 8.04588 5.86461 7.46607C7.24298 5.79282 8.92169 4.40829 10.7653 3.26347C11.2471 2.96295 11.7442 2.68733 12.2548 2.43774C12.7094 2.21632 13.1754 2.01203 13.6645 1.87856C14.14 1.74859 14.659 1.67738 15.1477 1.77505C15.3021 1.80571 15.4519 1.85593 15.5933 1.92448C15.7164 1.98486 15.832 2.0593 15.9376 2.14628C16.0499 2.2385 16.1539 2.33773 16.2753 2.41867C16.3078 2.44046 16.3361 2.44046 16.3538 2.40427C16.3655 2.38054 16.3773 2.35602 16.3883 2.33151C16.4365 2.22232 16.4759 2.10951 16.5061 1.99413C16.6176 1.57893 16.6525 1.04193 16.3385 0.700664C15.9376 0.265228 15.3817 0.355895 14.8541 0.449286C13.4435 0.693271 12.062 1.41005 10.8128 2.08052C8.25036 3.45376 5.84419 5.25815 3.89892 7.41471C2.97078 8.43499 2.17002 9.56238 1.51395 10.7725C1.43054 10.9359 1.35559 11.1035 1.28939 11.2745C1.14609 11.6243 1.01929 12.0033 1.01929 12.3851Z" fill="#3DA1FF"/>
<path fill-rule="evenodd" clip-rule="evenodd" d="M9.85449 9.71943C9.98365 9.77857 10.0382 9.7276 10.1831 9.66689L11.2764 9.22523C11.7157 9.07347 13.4655 8.54581 13.9511 9.08553C14.4368 9.62526 14.1031 10.5148 13.8334 11.0736C13.6229 11.5079 13.3265 11.8927 13.0136 12.2585C12.6792 12.6468 12.3545 13.057 11.9725 13.401C11.7958 13.5629 11.6137 13.7185 11.4339 13.8742L10.6817 14.5357C10.5694 14.6326 10.454 14.7264 10.3417 14.8174C9.11407 15.8081 6.6231 17.5627 5.2247 18.4075C4.98365 18.5534 3.80863 19.2442 3.70813 19.3804C4.18512 19.3804 5.45515 18.6573 5.88503 18.4464C7.00901 17.8892 8.92602 16.8642 9.96009 16.2027C10.2961 15.9875 10.5933 15.8163 10.9302 15.5937C11.267 15.3711 11.5583 15.1754 11.8724 14.9559C12.7132 14.3605 13.5186 13.7174 14.2844 13.0298C14.9962 12.3974 15.6585 11.7067 16.2156 10.9343C16.3703 10.7195 16.5166 10.499 16.6545 10.2728C17.0471 9.62448 18.1734 7.26168 16.7656 6.77449C15.6365 6.38536 13.5562 7.46481 12.7828 7.91036L11.287 8.75983C11.0354 8.91471 9.96716 9.56689 9.85449 9.71943Z" fill="white"/>
<path fill-rule="evenodd" clip-rule="evenodd" d="M15.1846 4.62693C15.1846 5.19506 15.7813 5.64606 16.3074 5.7986C18.2044 6.34961 19.9192 4.71527 18.3936 3.73038C17.2472 2.99103 15.1846 3.51714 15.1846 4.62538V4.62693Z" fill="white"/>
</g>
<defs>
<clipPath id="clip0_492_742">
<rect width="19.2" height="19.0098" fill="white" transform="translate(0.400024 0.371338)"/>
</clipPath>
</defs>
</svg>
